<?xml version="1.0" standalone="no"?><!DOCTYPE svg PUBLIC "-//W3C//DTD SVG 1.1//EN" "http://www.w3.org/Graphics/SVG/1.1/DTD/svg11.dtd"><svg t="1554513275054" class="icon" style="" viewBox="0 0 1024 1024" version="1.1" xmlns="http://www.w3.org/2000/svg" p-id="1554" xmlns:xlink="http://www.w3.org/1999/xlink" width="128" height="128"><defs><style type="text/css"></style></defs><path d="M802.2 959.1H311.9v-80.2h422.6l-194-354.3 70.3-38.5 226.5 413.6c6.8 12.4 6.6 27.5-0.7 39.7s-20.2 19.7-34.4 19.7z" fill="#ff2121" p-id="1555"></path><path d="M248.4 700.9c-19 0-39.3-1.2-61.1-3.6l8.7-79.7c72.9 8 125.7 0.2 152.5-22.4 16.1-13.6 24.7-34.2 26.4-63.1 1.9-33.1-23.6-129.6-216.1-404.6l65.7-46C437.1 385.3 457.9 486.8 455 536.7c-3 51.2-21.4 91.5-54.6 119.7-35.2 29.8-85.3 44.5-152 44.5z" fill="#ff2121" p-id="1556"></path><path d="M231.8 930.3h-80.2V144.7c0-44.2 35.9-80.2 80.2-80.2h559.1c44.2 0 80.2 35.9 80.2 80.2v182.5c-8.9 104.6-66.3 222.7-288.2 210.3l-40-2.2 4.5-80 40 2.2C756.7 467 785.2 390.9 791 323.7l-0.2-179h-559v785.6z" fill="#ff2121" p-id="1557"></path><path d="M512.3 224.8m-40.1 0a40.1 40.1 0 1 0 80.2 0 40.1 40.1 0 1 0-80.2 0Z" fill="#ff2121" p-id="1558"></path></svg>