<?xml version="1.0" standalone="no"?><!DOCTYPE svg PUBLIC "-//W3C//DTD SVG 1.1//EN" "http://www.w3.org/Graphics/SVG/1.1/DTD/svg11.dtd"><svg t="1554515361310" class="icon" style="" viewBox="0 0 1024 1024" version="1.1" xmlns="http://www.w3.org/2000/svg" p-id="4852" xmlns:xlink="http://www.w3.org/1999/xlink" width="32" height="32"><defs><style type="text/css"></style></defs><path d="M896 85.333333h-298.666667a42.666667 42.666667 0 0 0-42.666666 42.666667v298.666667a42.666667 42.666667 0 0 0 42.666666 42.666666h298.666667a42.666667 42.666667 0 0 0 42.666667-42.666666V128a42.666667 42.666667 0 0 0-42.666667-42.666667z m-42.666667 298.666667h-213.333333V170.666667h213.333333z" p-id="4853" fill="#ffffff"></path><path d="M810.666667 512h-298.666667V213.333333a42.666667 42.666667 0 0 0-42.666667-42.666666H128a42.666667 42.666667 0 0 0-42.666667 42.666666v682.666667a42.666667 42.666667 0 0 0 42.666667 42.666667h682.666667a42.666667 42.666667 0 0 0 42.666666-42.666667v-341.333333a42.666667 42.666667 0 0 0-42.666666-42.666667zM170.666667 256h256v256H170.666667z m0 341.333333h256v256H170.666667z m597.333333 256h-256v-256h256z" p-id="4854" fill="#ffffff"></path></svg>